<svg width="28" height="28" viewBox="0 0 28 28" fill="none" xmlns="http://www.w3.org/2000/svg">
<g clip-path="url(#clip0_11_41)">
<path fill-rule="evenodd" clip-rule="evenodd" d="M13.9895 25.4118C11.9227 25.4125 9.89398 24.8564 8.1165 23.8018L7.6965 23.5498L3.332 24.6943L4.4975 20.4366L4.2245 19.9973C3.06916 18.1604 2.45813 16.0336 2.46225 13.8636C2.46225 7.51809 7.637 2.34159 13.9965 2.34159C15.5115 2.33887 17.0121 2.63607 18.4118 3.21605C19.8114 3.79603 21.0824 4.64732 22.1515 5.72084C23.2243 6.79017 24.0748 8.06133 24.6539 9.46099C25.233 10.8607 25.5292 12.3611 25.5255 13.8758C25.5185 20.2441 20.3438 25.4118 13.9895 25.4118ZM17.948 15.6468C18.2682 15.7658 19.971 16.6041 20.3158 16.7773C20.6623 16.9506 20.895 17.0363 20.9808 17.1833C21.0683 17.3286 21.0683 18.0216 20.7812 18.8336C20.489 19.6438 19.1047 20.3823 18.4397 20.4838C17.8412 20.5696 17.0905 20.6098 16.2593 20.3438C15.7535 20.1828 15.106 19.9711 14.2835 19.6123C10.8027 18.1073 8.53475 14.6091 8.36325 14.3763L8.36043 14.3726C8.17536 14.1265 6.94575 12.4914 6.94575 10.7906C6.94575 9.08084 7.8365 8.24259 8.155 7.89609C8.27119 7.76413 8.41341 7.65762 8.57271 7.58324C8.73202 7.50886 8.90499 7.4682 9.08075 7.46384C9.3135 7.46384 9.54625 7.46384 9.74575 7.47609C9.95925 7.48484 10.2445 7.39034 10.5245 8.07109C10.8167 8.76059 11.508 10.4703 11.5955 10.6436C11.6812 10.8168 11.7355 11.0163 11.6217 11.2508C11.508 11.4818 11.4502 11.6288 11.2752 11.8283C11.102 12.0278 10.9095 12.2798 10.7572 12.4338C10.584 12.6071 10.4038 12.7926 10.6033 13.1391C10.8098 13.4838 11.501 14.6213 12.5335 15.5401C13.8565 16.7248 14.9747 17.0888 15.3195 17.2638C15.666 17.4353 15.8725 17.4091 16.072 17.1763C16.2715 16.9506 16.9365 16.1648 17.1693 15.8201C17.3968 15.4736 17.6295 15.5331 17.948 15.6468Z" fill="#666666"/>
<path fill-rule="evenodd" clip-rule="evenodd" d="M19.3048 1.04905C20.9894 1.74789 22.5181 2.77502 23.8018 4.07059H23.8C25.0928 5.35654 26.1183 6.88558 26.8175 8.56962C27.5167 10.2537 27.8757 12.0594 27.874 13.8828C27.867 21.5338 21.6405 27.7603 13.9965 27.7603H13.9895C11.6724 27.7597 9.39226 27.1792 7.357 26.0716L0 28.0001L1.96175 20.8093C0.7525 18.7006 0.112 16.3188 0.112 13.8706C0.119 6.22659 6.34725 8.63284e-05 13.9895 8.63284e-05C15.8133 -0.00637748 17.6202 0.350202 19.3048 1.04905ZM8.1165 23.8018C9.89398 24.8564 11.9227 25.4125 13.9895 25.4118C20.3438 25.4118 25.5185 20.2441 25.5255 13.8758C25.5292 12.3611 25.233 10.8607 24.6539 9.46099C24.0748 8.06133 23.2243 6.79017 22.1515 5.72084C21.0824 4.64732 19.8114 3.79603 18.4118 3.21605C17.0121 2.63607 15.5115 2.33887 13.9965 2.34159C7.637 2.34159 2.46225 7.51809 2.46225 13.8636C2.45813 16.0336 3.06916 18.1604 4.2245 19.9973L4.4975 20.4366L3.332 24.6943L7.6965 23.5498L8.1165 23.8018Z" fill="#666666"/>
</g>
<defs>
<clipPath id="clip0_11_41">
<rect width="28" height="28" fill="white"/>
</clipPath>
</defs>
</svg>
